# xmcd
# 
# Track frame offsets:
#     150
#     16262
#     29329
#     44331
#     58751
#     78497
#     97363
#     116098
#     133081
#     148445
# 
# Disc length: 2200
# 
# Revision: 0
# Processed by: cddbd v1.5.2PL0 Copyright (c) Steve Scherf et al.
# Submitted via: fre:ac v1.0.17
# 
DISCID=9608960a
DTITLE=Johnny Bulford - What Happens Here Stays Here
DYEAR=2006
DGENRE=Country
TTITLE0=What Hppens Here Stays Here
TTITLE1=One of Those Things
TTITLE2=How Could I Not
TTITLE3=A Kiss Away
TTITLE4=Missing Me
TTITLE5=Till I Fall Again
TTITLE6=When I Make It
TTITLE7=It Could Have Been Great
TTITLE8=Don't Be Afraid
TTITLE9=Whose Bed Am I Sleeping In Tonight
EXTD=
EXTT0=
EXTT1=
EXTT2=
EXTT3=
EXTT4=
EXTT5=
EXTT6=
EXTT7=
EXTT8=
EXTT9=
PLAYORDER=
